General
Format                           : MPEG-4
Format profile                   : Base Media / Version 2
Codec ID                         : mp42
File size                        : 89.8 MiB - 100 MiB
Duration                         : 43mn 15s - 48mn 12s
Overall bit rate                 : 290 Kbps

Video
ID                               : 1
Format                           : AVC
Format/Info                      : Advanced Video Codec
Format profile                   : Baseline@L2.1
Format settings, CABAC           : No
Format settings, ReFrames        : 2 frames
Codec ID                         : avc1
Codec ID/Info                    : Advanced Video Coding
Duration                         : 43mn 15s - 48mn 12s
Bit rate mode                    : Variable
Bit rate                         : 240 Kbps
Width                            : 480 pixels
Height                           : 272 pixels
Display aspect ratio             : 16:9
Frame rate mode                  : Constant
Frame rate                       : 25.000 fps
Color space                      : YUV
Chroma subsampling               : 4:2:0
Bit depth                        : 8 bits
Scan type                        : Progressive
Bits/(Pixel*Frame)               : 0.074
Stream size                      : 74.2 MiB (83%) - 82.7 MiB (83%)
Writing library                  : x264 core 79

Audio
ID                               : 2
Format                           : AAC
Format/Info                      : Advanced Audio Codec
Format profile                   : LC
Codec ID                         : 40
Duration                         : 43mn 15s - 48mn 12s
Bit rate mode                    : Variable
Bit rate                         : 48.0 Kbps
Maximum bit rate                 : 72.7 Kbps
Channel(s)                       : 2 channels
Channel positions                : Front: L R
Sampling rate                    : 24.0 KHz
Compression mode                 : Lossy
Stream size                      : 14.9 MiB (17%) - 16.5 MiB (17%)



Doctor.Who.2005.S06E01.The.Impossible.Astronaut.HDTV.272p.H264.AAC-k3n.m4v
Doctor.Who.2005.S06E02.Day.of.the.Moon.HDTV.272p.H264.AAC-k3n.m4v
Doctor.Who.2005.S06E03.The.Curse.of.the.Black.Spot.HDTV.272p.H264.AAC-k3n.m4v
Doctor.Who.2005.S06E04.The.Doctors.Wife.HDTV.272p.H264.AAC-k3n.m4v
Doctor.Who.2005.S06E05.The.Rebel.Flesh.HDTV.272p.H264.AAC-k3n.m4v
Doctor.Who.2005.S06E06.The.Almost.People.HDTV.272p.H264.AAC-k3n.m4v
Doctor.Who.2005.S06E07.A.Good.Man.Goes.to.War.HDTV.272p.H264.AAC-k3n.m4v
